<?xml version="1.0" encoding="iso-8859-1"?>
<!-- Uploaded to: SVG Repo, www.svgrepo.com, Generator: SVG Repo Mixer Tools -->
<svg version="1.1" id="Layer_1" xmlns="http://www.w3.org/2000/svg" xmlns:xlink="http://www.w3.org/1999/xlink" 
	 viewBox="0 0 512 512" xml:space="preserve">
<polygon style="fill:#4BAF78;" points="199.245,286.445 41.469,286.445 19.519,286.445 19.519,492.243 41.469,492.243 
	199.245,492.243 221.196,492.243 221.196,286.445 "/>
<polygon style="fill:#299956;" points="41.469,286.445 19.519,286.445 19.519,492.243 41.469,492.243 42.2,492.243 42.2,286.445 "/>
<g>
	<polyline style="fill:#FFB92E;" points="142.85,108.112 138.053,8.232 80.712,8.232 68.225,268.242 150.54,268.242 
		144.117,134.497 	"/>
	<polyline style="fill:#FFB92E;" points="142.85,108.112 138.053,8.232 80.712,8.232 68.225,268.242 150.54,268.242 
		144.117,134.497 	"/>
</g>
<polygon style="fill:#EF9A1D;" points="80.712,8.232 68.225,268.242 91.138,268.242 103.625,8.232 "/>
<polygon style="fill:#E35F46;" points="77.486,75.398 141.279,75.398 139.795,44.507 78.969,44.507 "/>
<polygon style="fill:#CC3925;" points="77.486,75.398 100.399,75.398 101.882,44.507 78.969,44.507 "/>
<path style="fill:#F7984B;" d="M138.053,16.463H80.712c-4.546,0-8.232-3.686-8.232-8.232S76.166,0,80.712,0h57.342
	c4.546,0,8.232,3.686,8.232,8.232S142.599,16.463,138.053,16.463z"/>
<path style="fill:#EA6428;" d="M93.333,8.232c0-4.546,3.686-8.232,8.232-8.232H80.712c-4.546,0-8.232,3.686-8.232,8.232
	s3.686,8.232,8.232,8.232h20.853C97.019,16.463,93.333,12.778,93.333,8.232z"/>
<path style="fill:#CCC3A8;" d="M199.244,267.144h-77.289h-21.951H39.275H17.325c-7.597,0-13.757,6.158-13.757,13.757v3.379
	c0,7.598,6.158,13.757,13.757,13.757h21.951h60.729h21.951h77.289h21.951v-30.893h-21.951V267.144z"/>
<polyline style="fill:#36A1CB;" points="199.245,201.172 199.245,492.244 493.382,492.244 493.382,201.172 "/>
<rect x="199.246" y="201.167" style="fill:#1D89BF;" width="21.951" height="291.077"/>
<path style="fill:#CCC3A8;" d="M450.264,512h44.414c7.597,0,13.755-6.158,13.755-13.757v-3.379c0-7.598-6.158-13.757-13.755-13.757
	h-82.679H100.003H17.323c-7.597,0-13.757,6.158-13.757,13.757v3.379c0,7.598,6.158,13.757,13.757,13.757h82.679h321.873"/>
<g>
	<path style="fill:#C9B585;" d="M26.251,284.281v-3.379c0-7.598,6.158-13.757,13.757-13.757h-0.732H17.325
		c-7.597,0-13.757,6.158-13.757,13.757v3.379c0,7.598,6.158,13.757,13.757,13.757h21.951h0.732
		C32.408,298.038,26.251,291.878,26.251,284.281z"/>
	<path style="fill:#C9B585;" d="M26.25,498.243v-3.379c0-7.598,6.158-13.757,13.757-13.757H17.323
		c-7.597,0-13.757,6.158-13.757,13.757v3.379c0,7.598,6.158,13.757,13.757,13.757h22.682C32.407,512,26.25,505.842,26.25,498.243z"
		/>
</g>
<path style="fill:#CCC3A8;" d="M457.946,211.698h36.731c7.597,0,13.755-6.158,13.755-13.755v-3.38
	c0-7.598-6.158-13.755-13.755-13.755h-82.679H273.412h-82.678c-7.597,0-13.757,6.157-13.757,13.755v3.38
	c0,7.597,6.159,13.755,13.757,13.755h82.678h138.586h16.315"/>
<path style="fill:#1E834E;" d="M157.414,350.537H61.928c-4.546,0-8.232-3.684-8.232-8.232s3.686-8.232,8.232-8.232h95.486
	c4.546,0,8.232,3.684,8.232,8.232C165.645,346.852,161.96,350.537,157.414,350.537z"/>
<g>
	<rect id="SVGCleanerId_0" x="238.933" y="248.131" style="fill:#52C6EB;" width="54.01" height="39.222"/>
</g>
<g>
	<rect id="SVGCleanerId_1" x="238.933" y="287.346" style="fill:#8BD8F7;" width="54.01" height="39.221"/>
</g>
<g>
	<rect id="SVGCleanerId_2" x="238.933" y="326.571" style="fill:#52C6EB;" width="54.01" height="39.221"/>
</g>
<g>
	<rect id="SVGCleanerId_3" x="238.933" y="365.797" style="fill:#8BD8F7;" width="54.01" height="39.221"/>
</g>
<g>
	<rect x="238.933" y="405.133" style="fill:#52C6EB;" width="54.01" height="39.221"/>
</g>
<g>
	<rect id="SVGCleanerId_4" x="292.943" y="248.131" style="fill:#8BD8F7;" width="54.01" height="39.222"/>
</g>
<g>
	<rect id="SVGCleanerId_5" x="292.943" y="287.346" style="fill:#52C6EB;" width="54.01" height="39.221"/>
</g>
<g>
	<rect id="SVGCleanerId_6" x="292.943" y="326.571" style="fill:#8BD8F7;" width="54.01" height="39.221"/>
</g>
<g>
	<rect id="SVGCleanerId_7" x="292.943" y="365.797" style="fill:#52C6EB;" width="54.01" height="39.221"/>
</g>
<g>
	<rect x="292.943" y="405.133" style="fill:#8BD8F7;" width="54.01" height="39.221"/>
</g>
<g>
	<rect id="SVGCleanerId_8" x="346.953" y="248.131" style="fill:#52C6EB;" width="54.01" height="39.222"/>
</g>
<g>
	<rect id="SVGCleanerId_9" x="346.953" y="287.346" style="fill:#8BD8F7;" width="54.01" height="39.221"/>
</g>
<g>
	<rect id="SVGCleanerId_10" x="346.953" y="326.571" style="fill:#52C6EB;" width="54.01" height="39.221"/>
</g>
<g>
	<rect id="SVGCleanerId_11" x="346.953" y="365.797" style="fill:#8BD8F7;" width="54.01" height="39.221"/>
</g>
<g>
	<rect x="346.953" y="405.133" style="fill:#52C6EB;" width="54.01" height="39.221"/>
</g>
<g>
	<rect id="SVGCleanerId_12" x="400.962" y="248.131" style="fill:#8BD8F7;" width="54.01" height="39.222"/>
</g>
<g>
	<rect id="SVGCleanerId_13" x="400.962" y="287.346" style="fill:#52C6EB;" width="54.01" height="39.221"/>
</g>
<g>
	<rect id="SVGCleanerId_14" x="400.962" y="326.571" style="fill:#8BD8F7;" width="54.01" height="39.221"/>
</g>
<g>
	<rect id="SVGCleanerId_15" x="400.962" y="365.797" style="fill:#52C6EB;" width="54.01" height="39.221"/>
</g>
<g>
	<rect x="400.962" y="405.133" style="fill:#8BD8F7;" width="54.01" height="39.221"/>
</g>
<g>
	<g>
		<rect id="SVGCleanerId_0_1_" x="238.933" y="248.131" style="fill:#52C6EB;" width="54.01" height="39.222"/>
	</g>
</g>
<g>
	<g>
		<rect id="SVGCleanerId_1_1_" x="238.933" y="287.346" style="fill:#8BD8F7;" width="54.01" height="39.221"/>
	</g>
</g>
<g>
	<g>
		<rect id="SVGCleanerId_2_1_" x="238.933" y="326.571" style="fill:#52C6EB;" width="54.01" height="39.221"/>
	</g>
</g>
<g>
	<g>
		<rect id="SVGCleanerId_3_1_" x="238.933" y="365.797" style="fill:#8BD8F7;" width="54.01" height="39.221"/>
	</g>
</g>
<g>
	<rect x="238.933" y="405.001" style="fill:#52C6EB;" width="54.01" height="39.347"/>
</g>
<g>
	<g>
		<rect id="SVGCleanerId_4_1_" x="292.943" y="248.131" style="fill:#8BD8F7;" width="54.01" height="39.222"/>
	</g>
</g>
<g>
	<g>
		<rect id="SVGCleanerId_5_1_" x="292.943" y="287.346" style="fill:#52C6EB;" width="54.01" height="39.221"/>
	</g>
</g>
<g>
	<g>
		<rect id="SVGCleanerId_6_1_" x="292.943" y="326.571" style="fill:#8BD8F7;" width="54.01" height="39.221"/>
	</g>
</g>
<g>
	<g>
		<rect id="SVGCleanerId_7_1_" x="292.943" y="365.797" style="fill:#52C6EB;" width="54.01" height="39.221"/>
	</g>
</g>
<g>
	<rect x="292.943" y="405.001" style="fill:#8BD8F7;" width="54.01" height="39.347"/>
</g>
<g>
	<g>
		<rect id="SVGCleanerId_8_1_" x="346.953" y="248.131" style="fill:#52C6EB;" width="54.01" height="39.222"/>
	</g>
</g>
<g>
	<g>
		<rect id="SVGCleanerId_9_1_" x="346.953" y="287.346" style="fill:#8BD8F7;" width="54.01" height="39.221"/>
	</g>
</g>
<g>
	<g>
		<rect id="SVGCleanerId_10_1_" x="346.953" y="326.571" style="fill:#52C6EB;" width="54.01" height="39.221"/>
	</g>
</g>
<g>
	<g>
		<rect id="SVGCleanerId_11_1_" x="346.953" y="365.797" style="fill:#8BD8F7;" width="54.01" height="39.221"/>
	</g>
</g>
<g>
	<rect x="346.953" y="405.001" style="fill:#52C6EB;" width="54.01" height="39.347"/>
</g>
<g>
	<g>
		<rect id="SVGCleanerId_12_1_" x="400.962" y="248.131" style="fill:#8BD8F7;" width="54.01" height="39.222"/>
	</g>
</g>
<g>
	<g>
		<rect id="SVGCleanerId_13_1_" x="400.962" y="287.346" style="fill:#52C6EB;" width="54.01" height="39.221"/>
	</g>
</g>
<g>
	<g>
		<rect id="SVGCleanerId_14_1_" x="400.962" y="326.571" style="fill:#8BD8F7;" width="54.01" height="39.221"/>
	</g>
</g>
<g>
	<g>
		<rect id="SVGCleanerId_15_1_" x="400.962" y="365.797" style="fill:#52C6EB;" width="54.01" height="39.221"/>
	</g>
</g>
<g>
	<rect x="400.962" y="405.001" style="fill:#8BD8F7;" width="54.01" height="39.347"/>
</g>
<g>
	<rect x="55.48" y="409.787" style="fill:#DFDBCC;" width="107.536" height="35.659"/>
</g>
<g>
	<g>
		<rect x="55.48" y="374.128" style="fill:#BCBCBB;" width="107.536" height="35.658"/>
	</g>
	<g>
		<rect x="55.48" y="445.445" style="fill:#BCBCBB;" width="107.536" height="35.658"/>
	</g>
</g>
<rect x="55.48" y="409.787" style="fill:#DFDBCC;" width="107.536" height="35.659"/>
<rect x="55.48" y="409.787" style="fill:#D8CEAD;" width="22.181" height="35.659"/>
<polygon style="fill:#AFAFAE;" points="77.428,387.304 77.429,387.293 77.429,374.133 55.478,374.133 55.478,409.791 
	77.428,409.791 "/>
<rect x="55.48" y="445.445" style="fill:#BCBCBB;" width="107.536" height="35.658"/>
<rect x="55.48" y="445.445" style="fill:#AFAFAE;" width="22.181" height="35.658"/>
<path style="fill:#C9B585;" d="M199.659,197.943v-3.379c0-7.598,6.158-13.757,13.757-13.757h-0.732h-21.95
	c-7.597,0-13.757,6.158-13.757,13.757v3.379c0,7.598,6.158,13.757,13.757,13.757h21.95h0.732
	C205.817,211.699,199.659,205.54,199.659,197.943z"/>
</svg>